<svg xmlns="http://www.w3.org/2000/svg" viewBox="0 0 240 56" fill="none" role="img" aria-label="KERYX">
  <!-- 전령 새 심볼 (좌측) -->
  <g transform="translate(4, 8)">
    <!-- 새 몸통 -->
    <path d="M20 20 C18 16, 14 12, 10 14 C8 15, 7 17, 8 19 C9 21, 12 21, 14 20 C16 19, 18 20, 20 22 C22 24, 22 27, 20 28 C18 29, 15 28, 14 26" 
      stroke="#1a2744" stroke-width="1.8" stroke-linecap="round" fill="none"/>
    <!-- 날개 펼침 -->
    <path d="M16 18 C12 14, 6 12, 2 14 C0 15, 0 17, 2 18 C6 19, 12 18, 16 20" 
      stroke="#1a2744" stroke-width="1.5" stroke-linecap="round" fill="none" opacity="0.85"/>
    <path d="M18 19 C22 15, 28 13, 32 15 C34 16, 34 18, 32 19 C28 20, 22 19, 18 21" 
      stroke="#1a2744" stroke-width="1.5" stroke-linecap="round" fill="none" opacity="0.85"/>
    <!-- 꼬리 깃털 -->
    <path d="M14 26 C12 28, 10 32, 8 34" stroke="#1a2744" stroke-width="1.4" stroke-linecap="round" fill="none" opacity="0.7"/>
    <path d="M14 26 C14 30, 14 34, 13 36" stroke="#1a2744" stroke-width="1.4" stroke-linecap="round" fill="none" opacity="0.55"/>
    <path d="M14 26 C16 29, 18 32, 19 34" stroke="#1a2744" stroke-width="1.4" stroke-linecap="round" fill="none" opacity="0.4"/>
    <!-- 눈 -->
    <circle cx="9" cy="16" r="1.2" fill="#1a2744"/>
    <!-- 부리 -->
    <path d="M7 16 L4 15.5 L6 17" stroke="#1a2744" stroke-width="1" stroke-linecap="round" fill="none"/>
  </g>
  <!-- KERYX 워드마크 -->
  <text x="50" y="38" 
    font-family="'Georgia', 'Times New Roman', serif" 
    font-size="26" 
    font-weight="700" 
    letter-spacing="0.08em"
    fill="#0d1b3e">KERYX</text>
  <!-- 케릭스 서브텍스트 -->
  <text x="51" y="50" 
    font-family="'Arial', sans-serif" 
    font-size="9" 
    font-weight="400" 
    letter-spacing="0.25em"
    fill="#9a7a2e"
    opacity="0.9">케릭스</text>
</svg>
